<svg width="25" height="35" viewBox="0 0 25 35" fill="none" xmlns="http://www.w3.org/2000/svg">
<path d="M5 0.976562L0.5 5.47656L5 9.97656V7.02344H9.5V9.97656L14 5.47656L9.5 0.976562V4H5V0.976562ZM12.5234 11.5234C12.1016 11.5234 11.7266 11.6641 11.3984 11.9453C11.1172 12.2266 10.9766 12.5781 10.9766 13V27.9766L6.19531 25.4453H5.84375C5.42188 25.4453 5.07031 25.5859 4.78906 25.8672L3.66406 27.0625L10.9766 33.3203C11.3984 33.7891 11.9141 34.0234 12.5234 34.0234H22.2266C22.8828 34.0234 23.4219 33.7891 23.8438 33.3203C24.2656 32.8984 24.4766 32.3828 24.4766 31.7734V25.2344C24.4766 24.7656 24.3594 24.3672 24.125 24.0391C23.9375 23.6641 23.6328 23.3828 23.2109 23.1953L15.8281 19.8906L14 19.6797V13C14 12.5781 13.8594 12.2266 13.5781 11.9453C13.2969 11.6641 12.9453 11.5234 12.5234 11.5234Z" fill="white"/>
</svg>
