<svg width="34" height="29" viewBox="0 0 34 29" fill="none" xmlns="http://www.w3.org/2000/svg">
<path d="M12.5 5.02344C14.1406 5.02344 15.5469 5.60937 16.7188 6.78125C17.8906 7.95313 18.4766 9.35938 18.4766 11C18.4766 12.6406 17.8906 14.0469 16.7188 15.2188C15.5469 16.3906 14.1406 16.9766 12.5 16.9766C10.8594 16.9766 9.45312 16.3906 8.28125 15.2188C7.10938 14.0469 6.52344 12.6406 6.52344 11C6.52344 9.35938 7.10938 7.95313 8.28125 6.78125C9.45312 5.60937 10.8594 5.02344 12.5 5.02344ZM12.5 20C14 20 15.6406 20.2344 17.4219 20.7031C19.4375 21.1719 21.0547 21.8281 22.2734 22.6719C23.7734 23.6562 24.5234 24.7578 24.5234 25.9766V29H0.476562V25.9766C0.476562 24.7578 1.22656 23.6562 2.72656 22.6719C3.94531 21.8281 5.5625 21.1719 7.57812 20.7031C9.35938 20.2344 11 20 12.5 20ZM24.1719 5.51562C25.6719 7.20312 26.4219 9.07813 26.4219 11.1406C26.4219 13.1562 25.6719 14.9141 24.1719 16.4141L21.6406 13.8828C22.25 13.0391 22.5547 12.0781 22.5547 11C22.5547 9.92188 22.25 8.9375 21.6406 8.04688L24.1719 5.51562ZM29.0938 0.523438C31.0156 2.49219 32.3047 4.74219 32.9609 7.27344C33.6641 9.80469 33.6641 12.3359 32.9609 14.8672C32.3047 17.3516 31.0156 19.5547 29.0938 21.4766L26.6328 19.0859C28.0391 17.4922 28.9766 15.7344 29.4453 13.8125C29.9141 11.8906 29.9141 9.96875 29.4453 8.04688C28.9766 6.125 28.0391 4.41406 26.6328 2.91406L29.0938 0.523438Z" fill="white"/>
</svg>
