<svg width="29" height="31" viewBox="0 0 29 31" fill="none" xmlns="http://www.w3.org/2000/svg">
<path d="M0.5 0.523438H5V5.02344H0.5V0.523438ZM5 7.97656H9.5V12.4766H5V7.97656ZM8.02344 0.523438H12.5234V5.02344H8.02344V0.523438ZM21.5234 14.0234L14 6.5H18.5V0.523438H24.4766V6.5H28.9766L21.5234 14.0234ZM7.25 30.4766C6.6875 30.4766 6.14844 30.3125 5.63281 29.9844C5.16406 29.7031 4.8125 29.3281 4.57812 28.8594L0.640625 17.6797L0.5 16.9766C0.5 16.5547 0.640625 16.2031 0.921875 15.9219C1.20312 15.6406 1.55469 15.5 1.97656 15.5H26.0234C26.4453 15.5 26.7969 15.6406 27.0781 15.9219C27.3594 16.2031 27.5 16.5547 27.5 16.9766L27.4297 17.4688L23.4219 28.8594C23.1875 29.3281 22.8125 29.7031 22.2969 29.9844C21.8281 30.3125 21.3125 30.4766 20.75 30.4766H7.25ZM7.39062 27.5234H20.6094L23.8438 18.5234H4.15625L7.39062 27.5234Z" fill="white"/>
</svg>
