<svg width="24" height="19" viewBox="0 0 24 19" fill="none" xmlns="http://www.w3.org/2000/svg">
<path d="M21.9844 7H17.2031L12.8438 0.4375C12.625 0.15625 12.3438 0.015625 12 0.015625C11.6562 0.015625 11.375 0.15625 11.1562 0.4375L6.79688 7H2.01562C1.73438 7 1.48438 7.10938 1.26562 7.32812C1.07812 7.51562 0.984375 7.73438 0.984375 7.98438C0.984375 8.10938 1 8.20312 1.03125 8.26562L3.5625 17.5469C3.6875 17.9531 3.92188 18.2969 4.26562 18.5781C4.64062 18.8594 5.04688 19 5.48438 19H18.5156C18.9531 19 19.3438 18.8594 19.6875 18.5781C20.0625 18.2969 20.3125 17.9531 20.4375 17.5469L22.9688 8.26562L23.0156 7.98438C23.0156 7.73438 22.9062 7.51562 22.6875 7.32812C22.5 7.10938 22.2656 7 21.9844 7ZM12 2.78125L14.8125 7H9.1875L12 2.78125ZM18.5156 16.9844H5.48438L3.32812 9.01562H20.7188L18.5156 16.9844ZM12 10.9844C11.4375 10.9844 10.9531 11.1875 10.5469 11.5938C10.1719 11.9688 9.98438 12.4375 9.98438 13C9.98438 13.5625 10.1719 14.0469 10.5469 14.4531C10.9531 14.8281 11.4375 15.0156 12 15.0156C12.5625 15.0156 13.0312 14.8281 13.4062 14.4531C13.8125 14.0469 14.0156 13.5625 14.0156 13C14.0156 12.4375 13.8125 11.9688 13.4062 11.5938C13.0312 11.1875 12.5625 10.9844 12 10.9844Z" fill="white"/>
</svg>
