<svg width="6" height="18" viewBox="0 0 6 18" fill="none" xmlns="http://www.w3.org/2000/svg">
<path d="M3 12.9844C3.5625 12.9844 4.03125 13.1875 4.40625 13.5938C4.8125 13.9688 5.01562 14.4375 5.01562 15C5.01562 15.5625 4.8125 16.0469 4.40625 16.4531C4.03125 16.8281 3.5625 17.0156 3 17.0156C2.4375 17.0156 1.95312 16.8281 1.54688 16.4531C1.17188 16.0469 0.984375 15.5625 0.984375 15C0.984375 14.4375 1.17188 13.9688 1.54688 13.5938C1.95312 13.1875 2.4375 12.9844 3 12.9844ZM3 6.98438C3.5625 6.98438 4.03125 7.1875 4.40625 7.59375C4.8125 7.96875 5.01562 8.4375 5.01562 9C5.01562 9.5625 4.8125 10.0469 4.40625 10.4531C4.03125 10.8281 3.5625 11.0156 3 11.0156C2.4375 11.0156 1.95312 10.8281 1.54688 10.4531C1.17188 10.0469 0.984375 9.5625 0.984375 9C0.984375 8.4375 1.17188 7.96875 1.54688 7.59375C1.95312 7.1875 2.4375 6.98438 3 6.98438ZM3 0.984375C3.5625 0.984375 4.03125 1.1875 4.40625 1.59375C4.8125 1.96875 5.01562 2.4375 5.01562 3C5.01562 3.5625 4.8125 4.04688 4.40625 4.45312C4.03125 4.82812 3.5625 5.01562 3 5.01562C2.4375 5.01562 1.95312 4.82812 1.54688 4.45312C1.17188 4.04688 0.984375 3.5625 0.984375 3C0.984375 2.4375 1.17188 1.96875 1.54688 1.59375C1.95312 1.1875 2.4375 0.984375 3 0.984375Z" fill="white"/>
</svg>
