<svg width="18" height="18" viewBox="0 0 18 18" fill="none" xmlns="http://www.w3.org/2000/svg">
<path d="M6.51562 0C7.67188 0 8.75 0.296875 9.75 0.890625C10.75 1.45312 11.5312 2.23438 12.0938 3.23438C12.6875 4.23438 12.9844 5.32812 12.9844 6.51562C12.9844 8.10938 12.4688 9.51562 11.4375 10.7344L11.7188 11.0156H12.5156L17.4844 15.9844L15.9844 17.4844L11.0156 12.5156V11.7188L10.7344 11.4375C9.51562 12.4688 8.10938 12.9844 6.51562 12.9844C5.64062 12.9844 4.79688 12.8281 3.98438 12.5156C3.20312 12.1719 2.5 11.7031 1.875 11.1094C1.28125 10.4844 0.8125 9.78125 0.46875 9C0.15625 8.1875 0 7.35938 0 6.51562C0 5.32812 0.28125 4.23438 0.84375 3.23438C1.4375 2.23438 2.23438 1.45312 3.23438 0.890625C4.23438 0.296875 5.32812 0 6.51562 0ZM6.51562 2.01562C5.26562 2.01562 4.20312 2.45312 3.32812 3.32812C2.45312 4.20312 2.01562 5.26562 2.01562 6.51562C2.01562 7.76562 2.45312 8.82812 3.32812 9.70312C4.20312 10.5781 5.26562 11.0156 6.51562 11.0156C7.76562 11.0156 8.82812 10.5781 9.70312 9.70312C10.5781 8.82812 11.0156 7.76562 11.0156 6.51562C11.0156 5.26562 10.5781 4.20312 9.70312 3.32812C8.82812 2.45312 7.76562 2.01562 6.51562 2.01562Z" fill="white"/>
</svg>
